<svg version="1.1" id="Layer_1" xmlns="http://www.w3.org/2000/svg" xmlns:xlink="http://www.w3.org/1999/xlink" x="0px" y="0px"
	 width="100%" viewBox="0 0 287 121" enable-background="new 0 0 287 121" xml:space="preserve">
<path fill="#FDFDFD" opacity="1.000000" stroke="none" 
	d="
M175.000000,122.000000 
	C116.666687,122.000000 58.833366,122.000000 1.000039,122.000000 
	C1.000026,81.666695 1.000026,41.333393 1.000013,1.000066 
	C96.666603,1.000044 192.333206,1.000044 287.999878,1.000022 
	C287.999908,41.333263 287.999908,81.666527 287.999939,121.999893 
	C250.500000,122.000000 213.000000,122.000000 175.000000,122.000000 
M60.104542,101.994896 
	C58.076488,100.977707 56.048435,99.960518 53.347084,98.701782 
	C51.566013,98.701782 49.784939,98.701782 48.646839,98.701782 
	C47.565529,100.864670 46.784775,102.426376 46.033100,103.269394 
	C42.081310,97.053307 37.818401,96.456573 31.316135,101.370132 
	C31.121010,101.803673 30.925884,102.237213 30.357384,103.500336 
	C30.020681,101.481300 29.808899,100.211342 29.519068,98.473366 
	C26.875296,100.333603 24.610037,101.927505 22.206911,103.618416 
	C19.857441,101.991966 17.598614,100.428268 15.032830,98.652069 
	C15.032830,103.984818 15.032830,108.835289 15.032830,113.589752 
	C20.154804,113.589752 24.899244,113.589752 29.594088,113.589752 
	C30.058384,110.042183 30.058384,110.042183 32.054401,110.925774 
	C37.622070,116.186180 42.660683,115.432808 45.660660,108.419212 
	C46.396561,108.755486 47.132465,109.091751 47.586006,110.244919 
	C48.242290,111.458656 48.793320,113.635208 49.572979,113.720436 
	C53.058525,114.101494 56.609276,113.886131 59.668781,113.886131 
	C59.826759,111.434891 59.933769,109.774475 60.632122,108.264946 
	C61.389503,108.929398 62.146889,109.593849 63.066830,110.946022 
	C69.538895,116.894989 75.108398,115.034210 78.397568,106.012093 
	C78.577400,106.020424 78.757240,106.028755 79.261253,106.714233 
	C79.261253,109.078468 79.261253,111.442696 79.261253,113.596420 
	C83.735931,113.596420 88.635529,113.596420 93.811699,113.596420 
	C93.263527,108.597656 92.751823,103.931473 92.199036,98.890564 
	C88.410271,98.890564 83.842514,98.890564 79.007179,98.890564 
	C78.864708,100.291489 78.735909,101.557968 78.068497,102.852036 
	C77.720406,102.896347 77.372314,102.940659 76.725433,102.358658 
	C71.748558,96.668282 67.640762,96.568634 62.467602,102.366730 
	C61.681263,102.483566 60.894924,102.600403 60.104542,101.994896 
M233.263702,110.785500 
	C233.023163,113.089005 233.919632,114.074318 236.361160,113.926910 
	C239.494751,113.737717 242.647125,113.859779 246.595871,113.954926 
	C247.135574,113.917610 247.675293,113.880302 249.099533,113.873230 
	C256.512970,113.878677 263.937103,114.098885 271.331940,113.730904 
	C273.070526,113.644394 275.898987,111.788605 276.157196,110.370140 
	C276.764465,107.034447 276.122528,103.471344 275.948761,99.223717 
	C272.025085,99.215240 268.101410,99.206764 263.533813,99.084183 
	C263.024414,99.467361 262.515015,99.850548 261.476227,100.228973 
	C261.299988,100.238159 261.123718,100.247353 260.257050,99.717239 
	C256.571228,99.384407 252.888763,98.967659 249.195511,98.820206 
	C248.709427,98.800804 248.168365,100.158081 247.016708,100.928322 
	C246.599640,101.008194 246.182556,101.088058 245.160110,100.698158 
	C243.412918,100.032745 241.679016,98.862152 239.915558,98.815826 
	C236.994110,98.739082 232.476242,96.933083 232.559830,103.203384 
	C232.328629,103.180595 232.097427,103.157799 231.534088,102.526833 
	C226.584473,96.216232 220.941345,96.526474 216.314789,103.016937 
	C216.028839,101.628410 215.742889,100.239891 215.480270,98.964737 
	C210.903839,98.964737 206.676147,98.964737 202.812439,98.964737 
	C202.084717,100.920959 201.506241,102.476006 200.964828,103.321053 
	C200.532288,102.624252 200.189148,101.847939 199.652115,101.244057 
	C196.932037,98.185341 193.227005,96.642494 189.991104,99.165932 
	C187.615662,101.018387 185.306488,104.716324 185.391983,107.517822 
	C185.498550,111.010017 188.435379,114.088783 192.796295,114.154533 
	C197.068359,114.218948 200.172058,112.596481 201.510849,107.209389 
	C204.204727,106.401520 204.204727,106.401520 205.820068,113.664566 
	C208.057938,113.664566 210.304108,113.664566 212.963120,113.664566 
	C212.963120,111.963951 213.026749,110.509064 212.949905,109.061638 
	C212.789017,106.031311 214.181946,105.643250 216.439316,107.525650 
	C219.327225,115.573235 225.802048,116.576225 232.461716,110.094658 
	C232.644394,110.062744 232.827072,110.030823 233.263702,110.785500 
M137.726959,106.030869 
	C143.545883,106.270081 139.302963,111.440559 141.637650,113.686371 
	C143.614532,113.686371 145.836456,113.686371 148.574371,113.686371 
	C148.574371,111.852921 148.516846,110.238327 148.587143,108.629311 
	C148.708130,105.860382 150.156158,105.743523 152.073608,107.659294 
	C154.966827,115.154442 159.784134,116.223541 167.077942,111.190697 
	C172.053192,116.391670 178.149017,112.743599 183.714584,114.033813 
	C183.714584,108.667419 183.714584,103.874825 183.714584,98.535561 
	C180.954178,100.522835 178.727539,102.125847 176.624115,103.640160 
	C168.906464,98.450462 168.906464,98.450462 167.151337,101.750298 
	C161.056580,96.494499 156.640305,96.854317 152.204834,102.779808 
	C151.714066,99.656509 150.304886,98.073967 146.748169,98.574585 
	C143.211136,99.072441 139.584549,98.934212 135.131271,98.703529 
	C130.753387,98.703529 126.375488,98.703529 122.074554,98.703529 
	C120.990204,109.360306 122.770378,113.473541 128.372009,114.024788 
	C133.060608,114.486183 136.035202,111.668747 137.726959,106.030869 
M124.485252,83.028374 
	C128.439041,83.028374 132.392838,83.028374 136.436844,83.028374 
	C136.436844,61.877155 136.436844,41.237778 136.436844,19.834366 
	C125.885101,27.771097 115.965286,35.232513 106.018456,42.714252 
	C95.838623,35.076492 85.961426,27.665796 75.724564,19.985250 
	C75.724564,41.477505 75.724564,62.050858 75.724564,83.028366 
	C91.903160,83.028366 107.696098,83.028366 124.485252,83.028374 
M177.795486,43.276321 
	C170.081085,56.321804 162.366684,69.367287 154.546448,82.591751 
	C179.699585,82.591751 204.001678,82.591751 228.939056,82.591751 
	C216.371262,61.351387 204.164352,40.720970 191.705322,19.664431 
	C186.929779,27.764328 182.543655,35.203716 177.795486,43.276321 
M147.049225,51.500004 
	C147.050385,42.186451 147.098633,32.872398 147.000031,23.559904 
	C146.985855,22.220747 146.264130,20.889080 145.869843,19.553947 
	C142.972137,26.449305 143.666931,79.589592 146.603607,83.557610 
	C147.463089,72.312721 146.851608,62.385635 147.049225,51.500004 
M104.393730,113.875938 
	C109.920738,113.875938 115.447746,113.875938 121.776207,113.875938 
	C118.334877,108.042099 115.435783,103.127472 111.913963,97.157181 
	C108.828918,103.302597 106.214516,108.510490 104.393730,113.875938 
z"/>
<path fill="#191919" opacity="1.000000" stroke="none" 
	d="
M123.987144,83.028366 
	C107.696098,83.028366 91.903160,83.028366 75.724564,83.028366 
	C75.724564,62.050858 75.724564,41.477505 75.724564,19.985250 
	C85.961426,27.665796 95.838623,35.076492 106.018456,42.714252 
	C115.965286,35.232513 125.885101,27.771097 136.436844,19.834366 
	C136.436844,41.237778 136.436844,61.877155 136.436844,83.028374 
	C132.392838,83.028374 128.439041,83.028374 123.987144,83.028366 
z"/>
<path fill="#181818" opacity="1.000000" stroke="none" 
	d="
M177.976501,42.959713 
	C182.543655,35.203716 186.929779,27.764328 191.705322,19.664431 
	C204.164352,40.720970 216.371262,61.351387 228.939056,82.591751 
	C204.001678,82.591751 179.699585,82.591751 154.546448,82.591751 
	C162.366684,69.367287 170.081085,56.321804 177.976501,42.959713 
z"/>
<path fill="#202020" opacity="1.000000" stroke="none" 
	d="
M152.967453,102.905922 
	C156.640305,96.854317 161.056580,96.494499 167.151337,101.750298 
	C168.906464,98.450462 168.906464,98.450462 176.624115,103.640160 
	C178.727539,102.125847 180.954178,100.522835 183.714584,98.535561 
	C183.714584,103.874825 183.714584,108.667419 183.714584,114.033813 
	C178.149017,112.743599 172.053192,116.391670 167.077942,111.190697 
	C159.784134,116.223541 154.966827,115.154442 152.373718,107.040840 
	C152.771713,105.250229 152.869583,104.078079 152.967453,102.905922 
z"/>
<path fill="#1B1B1B" opacity="1.000000" stroke="none" 
	d="
M262.005615,100.233734 
	C262.515015,99.850548 263.024414,99.467361 264.333313,99.388763 
	C268.750580,99.795647 272.368317,99.897957 275.986084,100.000259 
	C276.122528,103.471344 276.764465,107.034447 276.157196,110.370140 
	C275.898987,111.788605 273.070526,113.644394 271.331940,113.730904 
	C263.937103,114.098885 256.512970,113.878677 248.584457,113.408173 
	C247.930511,108.921333 247.791641,104.899551 247.652771,100.877762 
	C248.168365,100.158081 248.709427,98.800804 249.195511,98.820206 
	C252.888763,98.967659 256.571228,99.384407 260.339172,100.250214 
	C259.858154,103.933273 259.295013,107.083351 258.731842,110.233429 
	C258.452576,109.490425 258.173279,108.747429 257.894012,108.004425 
	C259.631409,106.798569 261.368835,105.592712 263.106232,104.386856 
	C263.328979,104.884247 263.551727,105.381630 263.774445,105.879021 
	C263.184845,103.997253 262.595245,102.115494 262.005615,100.233734 
z"/>
<path fill="#222222" opacity="1.000000" stroke="none" 
	d="
M31.902781,110.231377 
	C30.058384,110.042183 30.058384,110.042183 29.594088,113.589752 
	C24.899244,113.589752 20.154804,113.589752 15.032830,113.589752 
	C15.032830,108.835289 15.032830,103.984818 15.032830,98.652069 
	C17.598614,100.428268 19.857441,101.991966 22.206911,103.618416 
	C24.610037,101.927505 26.875296,100.333603 29.519068,98.473366 
	C29.808899,100.211342 30.020681,101.481300 30.357384,103.500336 
	C30.925884,102.237213 31.121010,101.803673 31.667658,101.776260 
	C31.980381,104.865379 31.941582,107.548378 31.902781,110.231377 
z"/>
<path fill="#202020" opacity="1.000000" stroke="none" 
	d="
M78.607117,102.824455 
	C78.735909,101.557968 78.864708,100.291489 79.007179,98.890564 
	C83.842514,98.890564 88.410271,98.890564 92.199036,98.890564 
	C92.751823,103.931473 93.263527,108.597656 93.811699,113.596420 
	C88.635529,113.596420 83.735931,113.596420 79.261253,113.596420 
	C79.261253,111.442696 79.261253,109.078468 79.164413,105.969696 
	C78.914085,104.424927 78.760597,103.624687 78.607117,102.824455 
z"/>
<path fill="#1F1F1F" opacity="1.000000" stroke="none" 
	d="
M136.892105,105.954834 
	C136.035202,111.668747 133.060608,114.486183 128.372009,114.024788 
	C122.770378,113.473541 120.990204,109.360306 122.074554,98.703529 
	C126.375488,98.703529 130.753387,98.703529 135.558350,99.298294 
	C136.287659,101.913643 136.589874,103.934242 136.892105,105.954834 
z"/>
<path fill="#1E1E1E" opacity="1.000000" stroke="none" 
	d="
M231.931717,109.925522 
	C225.802048,116.576225 219.327225,115.573235 216.644348,106.750168 
	C216.929153,105.090126 217.008942,104.205559 217.088730,103.320999 
	C220.941345,96.526474 226.584473,96.216232 231.662384,103.254364 
	C231.837708,105.963104 231.884705,107.944313 231.931717,109.925522 
z"/>
<path fill="#1B1B1B" opacity="1.000000" stroke="none" 
	d="
M200.979416,107.993347 
	C200.172058,112.596481 197.068359,114.218948 192.796295,114.154533 
	C188.435379,114.088783 185.498550,111.010017 185.391983,107.517822 
	C185.306488,104.716324 187.615662,101.018387 189.991104,99.165932 
	C193.227005,96.642494 196.932037,98.185341 199.652115,101.244057 
	C200.189148,101.847939 200.532288,102.624252 200.693481,103.887100 
	C200.607895,105.633217 200.793655,106.813278 200.979416,107.993347 
z"/>
<path fill="#252525" opacity="1.000000" stroke="none" 
	d="
M137.309540,105.992851 
	C136.589874,103.934242 136.287659,101.913643 135.991333,99.483978 
	C139.584549,98.934212 143.211136,99.072441 146.748169,98.574585 
	C150.304886,98.073967 151.714066,99.656509 152.586151,102.842865 
	C152.869583,104.078079 152.771713,105.250229 152.429199,106.675430 
	C150.156158,105.743523 148.708130,105.860382 148.587143,108.629311 
	C148.516846,110.238327 148.574371,111.852921 148.574371,113.686371 
	C145.836456,113.686371 143.614532,113.686371 141.637650,113.686371 
	C139.302963,111.440559 143.545883,106.270081 137.309540,105.992851 
z"/>
<path fill="#1F1F1F" opacity="1.000000" stroke="none" 
	d="
M77.857544,106.004425 
	C75.108398,115.034210 69.538895,116.894989 63.013569,110.142410 
	C62.976566,106.901184 62.992825,104.463562 63.009083,102.025948 
	C67.640762,96.568634 71.748558,96.668282 76.828369,102.998795 
	C77.240051,104.427437 77.548798,105.215927 77.857544,106.004425 
z"/>
<path fill="#1D1D1D" opacity="1.000000" stroke="none" 
	d="
M31.978592,110.578575 
	C31.941582,107.548378 31.980381,104.865379 32.014648,101.744408 
	C37.818401,96.456573 42.081310,97.053307 46.006973,104.001328 
	C45.653202,106.152321 45.325558,107.571396 44.997917,108.990463 
	C42.660683,115.432808 37.622070,116.186180 31.978592,110.578575 
z"/>
<path fill="#262626" opacity="1.000000" stroke="none" 
	d="
M201.245132,107.601364 
	C200.793655,106.813278 200.607895,105.633217 200.674957,104.242096 
	C201.506241,102.476006 202.084717,100.920959 202.812439,98.964737 
	C206.676147,98.964737 210.903839,98.964737 215.480270,98.964737 
	C215.742889,100.239891 216.028839,101.628410 216.701752,103.168968 
	C217.008942,104.205559 216.929153,105.090126 216.713776,106.402588 
	C214.181946,105.643250 212.789017,106.031311 212.949905,109.061638 
	C213.026749,110.509064 212.963120,111.963951 212.963120,113.664566 
	C210.304108,113.664566 208.057938,113.664566 205.820068,113.664566 
	C204.204727,106.401520 204.204727,106.401520 201.245132,107.601364 
z"/>
<path fill="#363636" opacity="1.000000" stroke="none" 
	d="
M147.049225,52.000008 
	C146.851608,62.385635 147.463089,72.312721 146.603607,83.557610 
	C143.666931,79.589592 142.972137,26.449305 145.869843,19.553947 
	C146.264130,20.889080 146.985855,22.220747 147.000031,23.559904 
	C147.098633,32.872398 147.050385,42.186451 147.049225,52.000008 
z"/>
<path fill="#1B1B1B" opacity="1.000000" stroke="none" 
	d="
M233.227768,103.004288 
	C232.476242,96.933083 236.994110,98.739082 239.915558,98.815826 
	C241.679016,98.862152 243.412918,100.032745 245.508560,101.345566 
	C245.796112,103.599663 246.377426,105.776566 245.552872,106.705231 
	C243.159714,109.400612 244.779678,111.519043 245.791412,113.847748 
	C242.647125,113.859779 239.494751,113.737717 236.361160,113.926910 
	C233.919632,114.074318 233.023163,113.089005 233.433289,110.166924 
	C233.477844,107.366997 233.352814,105.185638 233.227768,103.004288 
z"/>
<path fill="#252525" opacity="1.000000" stroke="none" 
	d="
M103.996925,113.797165 
	C106.214516,108.510490 108.828918,103.302597 111.913963,97.157181 
	C115.435783,103.127472 118.334877,108.042099 121.776207,113.875938 
	C115.447746,113.875938 109.920738,113.875938 103.996925,113.797165 
z"/>
<path fill="#1F1F1F" opacity="1.000000" stroke="none" 
	d="
M54.020386,98.943344 
	C56.048435,99.960518 58.076488,100.977707 60.076466,102.805199 
	C60.045853,105.115021 60.043316,106.614548 60.040779,108.114067 
	C59.933769,109.774475 59.826759,111.434891 59.668781,113.886131 
	C56.609276,113.886131 53.058525,114.101494 49.572979,113.720436 
	C48.793320,113.635208 48.242290,111.458656 47.800922,109.400009 
	C48.523220,105.885551 49.030605,103.216003 49.512718,100.679428 
	C51.108944,100.064659 52.564663,99.503998 54.020386,98.943344 
z"/>
<path fill="#202020" opacity="1.000000" stroke="none" 
	d="
M53.683735,98.822563 
	C52.564663,99.503998 51.108944,100.064659 49.512718,100.679428 
	C49.030605,103.216003 48.523220,105.885551 47.942104,108.991562 
	C47.132465,109.091751 46.396561,108.755486 45.329288,108.704834 
	C45.325558,107.571396 45.653202,106.152321 45.992432,104.360672 
	C46.784775,102.426376 47.565529,100.864670 48.646839,98.701782 
	C49.784939,98.701782 51.566013,98.701782 53.683735,98.822563 
z"/>
<path fill="#1F1F1F" opacity="1.000000" stroke="none" 
	d="
M261.740906,100.231354 
	C262.595245,102.115494 263.184845,103.997253 263.774445,105.879021 
	C263.551727,105.381630 263.328979,104.884247 263.106232,104.386856 
	C261.368835,105.592712 259.631409,106.798569 257.894012,108.004425 
	C258.173279,108.747429 258.452576,109.490425 258.731842,110.233429 
	C259.295013,107.083351 259.858154,103.933273 260.684387,100.519875 
	C261.123718,100.247353 261.299988,100.238159 261.740906,100.231354 
z"/>
<path fill="#BBBBBB" opacity="1.000000" stroke="none" 
	d="
M246.193634,113.901337 
	C244.779678,111.519043 243.159714,109.400612 245.552872,106.705231 
	C246.377426,105.776566 245.796112,103.599663 245.811249,101.580444 
	C246.182556,101.088058 246.599640,101.008194 247.334747,100.903046 
	C247.791641,104.899551 247.930511,108.921333 248.142181,113.393051 
	C247.675293,113.880302 247.135574,113.917610 246.193634,113.901337 
z"/>
<path fill="#1F1F1F" opacity="1.000000" stroke="none" 
	d="
M275.967407,99.611992 
	C272.368317,99.897957 268.750580,99.795647 264.655273,99.445808 
	C268.101410,99.206764 272.025085,99.215240 275.967407,99.611992 
z"/>
<path fill="#202020" opacity="1.000000" stroke="none" 
	d="
M60.336449,108.189507 
	C60.043316,106.614548 60.045853,105.115021 60.078487,103.166367 
	C60.894924,102.600403 61.681263,102.483566 62.738342,102.196335 
	C62.992825,104.463562 62.976566,106.901184 62.932289,109.798553 
	C62.146889,109.593849 61.389503,108.929398 60.336449,108.189507 
z"/>
<path fill="#949494" opacity="1.000000" stroke="none" 
	d="
M232.893799,103.103836 
	C233.352814,105.185638 233.477844,107.366997 233.306320,109.773621 
	C232.827072,110.030823 232.644394,110.062744 232.196716,110.010086 
	C231.884705,107.944313 231.837708,105.963104 231.828461,103.558456 
	C232.097427,103.157799 232.328629,103.180595 232.893799,103.103836 
z"/>
<path fill="#ABABAB" opacity="1.000000" stroke="none" 
	d="
M78.127556,106.008255 
	C77.548798,105.215927 77.240051,104.427437 76.977768,103.311951 
	C77.372314,102.940659 77.720406,102.896347 78.337807,102.838242 
	C78.760597,103.624687 78.914085,104.424927 79.002327,105.631126 
	C78.757240,106.028755 78.577400,106.020424 78.127556,106.008255 
z"/>
</svg>