<!-- icon666.com - MILLIONS vector ICONS FREE --><svg id="Icon" enable-background="new 0 0 96 96" viewBox="0 0 96 96" xmlns="http://www.w3.org/2000/svg"><path id="Cart_2_" d="m49 84c0-2.206-1.794-4-4-4s-4 1.794-4 4 1.794 4 4 4 4-1.794 4-4zm26 0c0-2.206-1.794-4-4-4s-4 1.794-4 4 1.794 4 4 4 4-1.794 4-4zm2.888-17.339c-.281.802-1.038 1.339-1.888 1.339h-40c-2.206 0-4 1.794-4 4s1.794 4 4 4h35c4.411 0 8 3.589 8 8s-3.589 8-8 8-8-3.589-8-8c0-1.458.398-2.822 1.082-4h-12.164c.684 1.178 1.082 2.542 1.082 4 0 4.411-3.589 8-8 8s-8-3.589-8-8c0-1.458.398-2.822 1.082-4h-2.082c-4.411 0-8-3.589-8-8 0-4.133 3.151-7.544 7.177-7.958l-18.112-50.714c-.284-.794-1.041-1.328-1.884-1.328h-9.181c-1.104 0-2-.896-2-2s.896-2 2-2h9.181c2.529 0 4.8 1.6 5.65 3.982l4.293 12.018h64.876c.648 0 1.256.314 1.631.843s.471 1.206.257 1.818z"></path></svg>